# xmcd CD database file
#
# Track frame offsets:
#	150
#	79038
#	128853
#	170621
#
# Disc length: 3164 seconds
#
# Revision: 1
# Processed by: cddbd v1.5.2PL0 Copyright (c) Steve Scherf et al.
# Submitted via: CDex 1.51
#
DISCID=2b0c5a04
DTITLE=Beethoven - Concerto pour piano  n° 1 et six variations
DYEAR=1798
DGENRE=Classique
TTITLE0=Concerto pour piano et orchestre n°1 en ut majeur, opus15 - Allegro con brio
TTITLE1=Concerto pour piano et orchestre n°1 en ut majeur, opus15 - Largo
TTITLE2=Concerto pour piano et orchestre n°1 en ut majeur, opus15 - Rondo - Allegro Scherzando
TTITLE3=Six variations pour piano sur un thème original en fa majeur, opus 34
EXTD=YEAR: 1798
EXTT0=
EXTT1=
EXTT2=
EXTT3=
PLAYORDER=
